<?xml version="1.0" encoding="UTF-8"?>
<svg version="1.1" xmlns="http://www.w3.org/2000/svg" width="512" height="512">
<path d="M0,0 L5,1 L11,10 L21,15 L28,22 L34,34 L35,39 L40,41 L55,50 L74,64 L86,75 L94,82 L103,92 L118,98 L124,102 L129,107 L134,116 L136,123 L140,125 L146,134 L149,144 L149,168 L155,186 L160,206 L163,225 L164,235 L164,277 L160,304 L154,328 L145,352 L134,375 L122,394 L113,406 L104,417 L90,432 L78,443 L61,456 L44,467 L21,479 L-5,489 L-27,495 L-50,499 L-59,500 L-103,500 L-130,496 L-154,490 L-178,481 L-199,471 L-217,460 L-231,450 L-244,439 L-256,428 L-270,413 L-282,397 L-293,380 L-306,355 L-315,331 L-321,309 L-325,286 L-326,277 L-326,233 L-322,206 L-316,182 L-308,160 L-296,135 L-286,119 L-276,105 L-272,100 L-280,97 L-290,87 L-290,85 L-303,91 L-312,93 L-319,92 L-324,88 L-325,79 L-321,73 L-306,68 L-294,60 L-285,60 L-280,65 L-274,71 L-272,71 L-265,63 L-261,60 L-252,60 L-242,67 L-237,65 L-223,54 L-206,43 L-205,42 L-213,40 L-219,37 L-226,31 L-229,26 L-228,20 L-227,19 L-221,19 L-216,25 L-210,29 L-207,30 L-195,30 L-185,29 L-191,22 L-198,17 L-198,11 L-196,9 L-190,9 L-182,15 L-176,22 L-173,27 L-160,22 L-161,13 L-158,10 L-152,11 L-149,17 L-149,19 L-141,17 L-138,4 L-133,2 L-128,5 L-129,14 L-111,11 L-102,10 L-60,10 L-37,13 L-27,15 L-17,14 L-6,12 L-2,3 Z " fill="#B9ED63" transform="translate(337,12)"/>
<path d="M0,0 L12,0 L21,4 L30,10 L38,18 L48,33 L62,54 L71,65 L78,72 L91,80 L100,83 L118,83 L135,79 L156,79 L172,84 L196,96 L209,102 L204,123 L197,144 L188,164 L180,179 L166,200 L153,216 L139,231 L127,242 L110,255 L93,266 L70,278 L44,288 L22,294 L-1,298 L-10,299 L-54,299 L-81,295 L-105,289 L-129,280 L-150,270 L-168,259 L-182,249 L-195,238 L-207,227 L-221,212 L-232,197 L-232,183 L-229,156 L-226,141 L-219,117 L-211,97 L-203,81 L-193,63 L-190,63 L-183,83 L-176,96 L-171,102 L-163,107 L-160,108 L-151,108 L-136,104 L-126,98 L-119,90 L-109,72 L-99,58 L-93,54 L-88,53 L-63,53 L-55,54 L-42,54 L-34,52 L-28,48 L-24,43 L-21,35 L-16,19 L-10,8 L-2,1 Z " fill="#27A6FE" transform="translate(288,213)"/>
<path d="M0,0 L12,0 L21,4 L30,10 L38,18 L48,33 L62,54 L71,65 L78,72 L91,80 L100,83 L118,83 L135,79 L156,79 L172,84 L196,96 L209,102 L204,123 L197,144 L188,164 L180,179 L166,200 L153,216 L139,231 L127,242 L121,247 L118,246 L115,237 L108,229 L100,225 L97,224 L84,224 L75,227 L68,228 L44,228 L29,225 L16,222 L9,221 L-6,221 L-21,225 L-32,231 L-36,234 L-40,232 L-55,217 L-68,200 L-71,195 L-62,191 L-59,186 L-59,174 L-38,167 L-29,165 L-25,165 L-25,191 L-21,194 L-16,194 L-10,189 L-1,175 L4,163 L7,157 L31,153 L66,148 L83,146 L100,141 L104,137 L104,131 L99,127 L88,123 L78,118 L69,110 L53,102 L43,99 L34,98 L8,98 L-7,100 L-18,103 L-28,103 L-38,99 L-55,95 L-62,94 L-72,94 L-75,98 L-75,103 L-67,115 L-67,122 L-72,127 L-83,136 L-93,146 L-94,148 L-96,148 L-101,134 L-106,119 L-111,97 L-113,87 L-113,79 L-105,66 L-98,57 L-93,54 L-88,53 L-63,53 L-55,54 L-42,54 L-34,52 L-28,48 L-24,43 L-21,35 L-16,19 L-10,8 L-2,1 Z " fill="#02BFFB" transform="translate(288,213)"/>
<path d="M0,0 L8,0 L19,3 L28,8 L37,17 L35,29 L27,39 L16,59 L11,64 L1,69 L-17,75 L-35,83 L-56,95 L-67,105 L-72,114 L-75,121 L-80,129 L-81,134 L-81,141 L-76,151 L-70,156 L-59,156 L-53,154 L-43,163 L-35,180 L-24,192 L-30,200 L-41,214 L-48,224 L-62,249 L-73,275 L-78,291 L-82,307 L-84,317 L-87,344 L-88,357 L-92,352 L-99,342 L-113,315 L-122,291 L-128,269 L-132,246 L-133,237 L-133,193 L-129,166 L-123,142 L-115,120 L-103,95 L-93,79 L-83,65 L-79,60 L-87,57 L-97,47 L-97,45 L-110,51 L-119,53 L-126,52 L-131,48 L-132,39 L-128,33 L-113,28 L-101,20 L-92,20 L-87,25 L-81,31 L-79,31 L-72,23 L-68,20 L-59,20 L-49,27 L-44,25 L-30,14 L-11,2 L-9,1 Z " fill="#FDF056" transform="translate(144,52)"/>
<path d="M0,0 L5,1 L11,10 L21,15 L28,22 L34,34 L35,39 L40,41 L55,50 L74,64 L86,75 L94,82 L103,92 L118,98 L124,102 L129,107 L134,116 L136,123 L140,125 L146,134 L149,144 L149,162 L145,174 L141,200 L137,204 L132,204 L129,200 L130,183 L134,165 L136,159 L136,147 L135,144 L126,160 L119,170 L118,182 L114,192 L106,204 L98,215 L84,214 L86,209 L94,197 L95,194 L95,167 L93,157 L86,151 L81,149 L58,144 L42,137 L30,129 L23,130 L16,154 L10,177 L2,194 L-4,195 L-15,190 L-16,189 L-16,184 L-7,176 L-2,165 L-1,131 L-1,117 L-6,100 L-10,79 L-13,53 L-16,46 L-18,45 L-43,45 L-49,41 L-52,35 L-52,28 L-48,24 L-24,17 L-17,14 L-6,12 L-2,3 Z " fill="#E49688" transform="translate(337,12)"/>
<path d="M0,0 L42,0 L65,3 L79,6 L78,8 L54,15 L51,18 L51,25 L54,31 L59,34 L84,34 L89,39 L91,51 L93,69 L98,94 L102,107 L102,121 L101,142 L87,141 L83,140 L82,130 L78,121 L71,113 L64,109 L60,108 L45,108 L35,113 L29,119 L24,118 L15,114 L-2,114 L-14,120 L-22,129 L-26,138 L-26,159 L-29,161 L-33,160 L-40,146 L-45,133 L-45,119 L-41,103 L-37,85 L-31,80 L-10,76 L-6,72 L-7,65 L-11,62 L-21,59 L-33,53 L-42,52 L-47,42 L-49,40 L-49,37 L-41,30 L-34,19 L-28,4 L-9,1 Z " fill="#FDF056" transform="translate(235,22)"/>
<path d="M0,0 L10,0 L26,3 L42,8 L44,9 L54,9 L70,5 L80,4 L106,4 L119,6 L134,12 L145,19 L153,26 L164,30 L174,35 L177,38 L177,44 L172,49 L155,54 L116,59 L89,63 L79,65 L73,80 L66,92 L59,100 L56,102 L49,101 L46,98 L46,78 L47,72 L24,78 L16,81 L11,80 L8,77 L5,76 L-4,76 L-10,81 L-11,83 L-11,96 L-21,104 L-35,116 L-37,119 L-37,124 L-32,134 L-29,148 L-29,155 L-31,157 L-36,157 L-48,146 L-53,140 L-87,139 L-96,136 L-97,129 L-86,122 L-73,117 L-57,115 L-53,111 L-45,90 L-35,71 L-25,57 L-14,45 L-3,35 L3,31 L4,29 L4,22 L-4,10 L-3,3 Z " fill="#866D93" transform="translate(216,306)"/>
<path d="M0,0 L5,2 L6,3 L5,12 L-1,27 L-8,38 L-15,45 L-17,45 L-12,54 L-10,57 L-10,60 L-1,60 L16,68 L23,70 L27,75 L26,82 L22,85 L1,89 L-4,93 L-8,111 L-12,127 L-12,141 L-3,163 L3,172 L11,179 L21,184 L27,187 L26,192 L16,199 L10,199 L-1,190 L-8,182 L-16,170 L-29,152 L-34,153 L-43,161 L-57,169 L-71,174 L-78,175 L-80,194 L-82,201 L-82,208 L-75,219 L-66,228 L-60,231 L-51,233 L-49,235 L-50,240 L-57,245 L-64,244 L-79,234 L-89,225 L-96,216 L-104,200 L-112,193 L-118,195 L-129,195 L-137,188 L-141,179 L-141,172 L-138,163 L-133,156 L-129,146 L-120,136 L-110,129 L-88,117 L-62,107 L-49,102 L-45,100 L-43,96 L-33,77 L-25,67 L-23,55 L-32,46 L-42,41 L-51,39 L-71,40 L-79,38 L-85,35 L-92,29 L-95,24 L-94,18 L-93,17 L-87,17 L-82,23 L-76,27 L-73,28 L-61,28 L-51,27 L-57,20 L-64,15 L-64,9 L-62,7 L-56,7 L-48,13 L-42,20 L-39,25 L-26,20 L-27,11 L-24,8 L-18,9 L-15,15 L-15,17 L-7,15 L-4,2 Z " fill="#CE7966" transform="translate(203,14)"/>
<path d="M0,0 L15,0 L31,3 L43,6 L50,7 L74,7 L84,5 L90,3 L103,3 L112,7 L120,14 L124,21 L125,28 L112,38 L97,47 L76,58 L50,68 L28,74 L5,78 L-4,79 L-48,79 L-57,78 L-57,63 L-53,46 L-45,30 L-37,19 L-29,12 L-15,4 Z " fill="#B9ED63" transform="translate(282,433)"/>
<path d="M0,0 L5,1 L11,10 L21,15 L28,22 L34,34 L40,51 L43,61 L45,71 L51,75 L51,77 L40,84 L34,92 L30,102 L30,123 L31,129 L25,129 L22,132 L10,177 L2,194 L-4,195 L-15,190 L-16,189 L-16,184 L-7,176 L-2,165 L-1,131 L-1,117 L-6,100 L-10,79 L-13,53 L-16,46 L-18,45 L-43,45 L-49,41 L-52,35 L-52,28 L-48,24 L-24,17 L-17,14 L-6,12 L-2,3 Z " fill="#CE7866" transform="translate(337,12)"/>
<path d="M0,0 L2,0 L2,11 L1,30 L1,64 L4,93 L-3,105 L-10,112 L-22,118 L-34,121 L-43,121 L-51,117 L-56,113 L-63,103 L-69,90 L-74,75 L-74,72 L-62,56 L-53,45 L-50,44 L-35,54 L-30,57 L-23,56 L-18,52 L-19,47 L-30,44 L-36,40 L-42,33 L-30,22 L-14,9 Z " fill="#95DA76" transform="translate(171,201)"/>
<path d="M0,0 L4,1 L18,13 L34,24 L49,33 L65,41 L83,49 L86,50 L86,52 L61,59 L38,63 L29,64 L-15,64 L-24,63 L-24,48 L-20,31 L-12,15 L-4,4 Z " fill="#94DA76" transform="translate(249,448)"/>
<path d="M0,0 L1,0 L2,19 L6,30 L12,38 L21,44 L29,47 L28,50 L26,67 L24,74 L24,81 L31,92 L40,101 L46,104 L55,106 L57,108 L56,113 L49,118 L42,117 L27,107 L17,98 L10,89 L2,73 L-6,66 L-12,68 L-23,68 L-31,61 L-35,52 L-35,45 L-32,36 L-27,29 L-23,19 L-14,9 L-4,2 Z " fill="#B66751" transform="translate(97,141)"/>
<path d="M0,0 L2,0 L3,22 L7,34 L8,37 L0,40 L-5,44 L-6,46 L-6,59 L-16,67 L-30,79 L-32,82 L-32,87 L-27,97 L-24,111 L-24,118 L-26,120 L-31,120 L-43,109 L-48,103 L-82,102 L-91,99 L-92,92 L-81,85 L-68,80 L-52,78 L-48,74 L-40,53 L-30,34 L-20,20 L-9,8 Z " fill="#6B5576" transform="translate(211,343)"/>
<path d="M0,0 L9,0 L17,7 L22,11 L29,4 L33,0 L43,0 L56,9 L69,13 L73,18 L73,25 L70,30 L64,33 L51,31 L38,25 L36,29 L27,38 L19,39 L14,36 L4,26 L-2,28 L-12,32 L-21,33 L-26,31 L-30,26 L-30,18 L-25,12 L-14,9 L-4,3 Z " fill="#876C93" transform="translate(418,0)"/>
<path d="M0,0 L9,0 L14,5 L20,11 L22,11 L29,3 L33,0 L42,0 L56,10 L67,13 L72,19 L72,25 L69,30 L65,32 L55,32 L43,27 L38,25 L27,37 L24,39 L15,38 L4,27 L4,25 L-9,31 L-18,33 L-25,32 L-30,28 L-31,19 L-27,13 L-12,8 Z " fill="#876D92" transform="translate(43,72)"/>
<path d="M0,0 L5,1 L18,19 L21,23 L21,25 L2,36 L-14,47 L-25,56 L-35,65 L-40,69 L-43,68 L-50,57 L-50,50 L-47,37 L-46,26 L-43,23 L-32,20 L-20,15 L-9,8 Z " fill="#FDEF56" transform="translate(170,165)"/>
<path d="M0,0 L5,0 L19,9 L33,15 L59,21 L65,25 L69,29 L71,39 L71,57 L55,49 L40,42 L16,33 L-9,27 L-8,18 L-3,2 Z " fill="#FDF056" transform="translate(362,140)"/>
<path d="M0,0 L5,2 L6,3 L5,12 L-1,27 L-8,38 L-15,45 L-17,45 L-17,47 L-21,49 L-26,49 L-28,47 L-28,42 L-26,39 L-35,34 L-37,33 L-40,38 L-46,40 L-51,39 L-71,40 L-79,38 L-85,35 L-92,29 L-95,24 L-94,18 L-93,17 L-87,17 L-82,23 L-76,27 L-73,28 L-61,28 L-51,27 L-57,20 L-64,15 L-64,9 L-62,7 L-56,7 L-48,13 L-42,20 L-39,25 L-26,20 L-27,11 L-24,8 L-18,9 L-15,15 L-15,17 L-7,15 L-4,2 Z " fill="#E59788" transform="translate(203,14)"/>
<path d="M0,0 L2,2 L3,5 L3,17 L-2,35 L-4,52 L-4,58 L-2,61 L5,60 L7,50 L11,28 L14,24 L19,37 L26,64 L29,83 L30,93 L30,102 L25,98 L16,87 L2,73 L-9,64 L-22,54 L-20,49 L-17,40 L-16,28 L-6,13 L-1,3 Z " fill="#FDEF56" transform="translate(471,154)"/>
<path d="M0,0 L12,0 L18,3 L23,7 L28,3 L30,2 L39,2 L45,5 L50,11 L51,13 L51,22 L47,28 L42,32 L39,33 L30,33 L22,28 L20,32 L14,36 L11,37 L1,37 L-8,31 L-12,24 L-12,14 L-9,7 L-2,1 Z " fill="#68D8FB" transform="translate(352,375)"/>
<path d="M0,0 L11,0 L20,4 L26,9 L29,14 L28,19 L20,26 L17,34 L17,48 L12,50 L0,50 L-10,45 L-16,38 L-19,30 L-19,19 L-14,9 L-7,3 Z " fill="#3FCD8C" transform="translate(387,209)"/>
<path d="M0,0 L17,0 L29,6 L30,8 L27,14 L26,19 L26,31 L20,33 L3,37 L-18,44 L-23,46 L-25,43 L-25,25 L-19,13 L-12,6 Z " fill="#3FCD8C" transform="translate(233,135)"/>
<path d="M0,0 L15,0 L25,4 L33,12 L36,17 L38,23 L38,33 L7,34 L-13,36 L-21,37 L-22,35 L-22,25 L-19,16 L-18,12 L-7,3 Z " fill="#95DB75" transform="translate(280,129)"/>
<path d="M0,0 L1,2 L3,1 L16,1 L25,7 L30,15 L30,29 L27,35 L19,42 L15,44 L4,44 L-4,41 L-12,32 L-13,27 L-13,18 L-10,10 L-1,2 Z " fill="#95DB75" transform="translate(416,225)"/>
<path d="M0,0 L14,0 L18,4 L18,12 L13,28 L5,44 L-3,54 L-7,57 L-14,56 L-17,53 L-17,33 L-16,27 L-18,26 L-16,26 L-16,19 L-12,9 L-4,2 Z " fill="#9B8AA9" transform="translate(279,351)"/>
<path d="M0,0 L5,2 L20,11 L39,25 L51,36 L59,43 L68,53 L64,54 L43,50 L32,45 L13,35 L9,32 L5,14 L0,2 Z " fill="#FDF056" transform="translate(372,51)"/>
<path d="M0,0 L9,0 L14,5 L21,12 L19,16 L12,24 L12,34 L5,28 L4,25 L-9,31 L-18,33 L-25,32 L-30,28 L-31,19 L-27,13 L-12,8 Z " fill="#6B5474" transform="translate(43,72)"/>
<path d="M0,0 L9,0 L17,7 L21,11 L20,15 L12,25 L12,33 L5,27 L2,26 L-9,31 L-21,33 L-26,31 L-30,26 L-30,18 L-25,12 L-14,9 L-4,3 Z " fill="#6C5475" transform="translate(418,0)"/>
<path d="M0,0 L4,2 L10,11 L13,21 L13,39 L9,51 L5,77 L1,81 L-4,81 L-7,77 L-6,60 L-2,42 L0,36 L0,24 L-1,16 Z " fill="#CE7966" transform="translate(473,135)"/>
<path d="M0,0 L12,6 L19,13 L25,25 L31,42 L34,52 L35,62 L26,57 L18,48 L9,33 L3,19 Z " fill="#B66651" transform="translate(346,21)"/>
<path d="M0,0 L9,0 L15,3 L20,9 L21,11 L21,20 L17,26 L12,30 L9,31 L0,31 L-6,27 L-10,21 L-11,12 L-8,6 L-2,1 Z " fill="#AAE8F7" transform="translate(382,377)"/>
<path d="M0,0 L9,1 L16,7 L17,9 L17,19 L13,25 L8,28 L-2,28 L-9,22 L-11,18 L-11,11 L-7,4 Z " fill="#68D8FB" transform="translate(283,269)"/>
<path d="M0,0 L9,0 L14,3 L18,8 L18,18 L14,24 L8,27 L-1,26 L-6,21 L-8,17 L-8,8 L-3,2 Z " fill="#69D7FA" transform="translate(212,381)"/>
<path d="M0,0 L6,0 L11,6 L17,10 L20,11 L43,11 L45,13 L47,20 L48,22 L34,22 L22,23 L14,21 L8,18 L1,12 L-2,7 L-1,1 Z " fill="#CE7866" transform="translate(110,31)"/>
<path d="M0,0 L2,4 L5,15 L12,25 L20,33 L20,35 L16,37 L5,37 L-3,30 L-7,21 L-7,14 L-4,5 Z " fill="#A35540" transform="translate(69,172)"/>
<path d="M0,0 L6,0 L14,6 L20,13 L24,24 L24,29 L21,32 L16,33 L14,29 L12,22 L6,14 L-2,8 L-2,2 Z " fill="#E49588" transform="translate(141,21)"/>
<path d="M0,0 L4,4 L9,11 L8,15 L3,19 L-1,18 L-12,12 L-14,6 L-6,2 Z " fill="#FDEE56" transform="translate(177,34)"/>
<path d="M0,0 L6,1 L11,13 L13,15 L12,19 L9,23 L5,22 L-2,11 L-3,3 Z " fill="#CF7966" transform="translate(179,22)"/>
<path d="M0,0 L7,0 L11,4 L11,11 L7,15 L0,15 L-4,11 L-4,4 Z " fill="#46314D" transform="translate(332,324)"/>
<path d="M0,0 L2,0 L-1,9 L-6,4 L-6,2 Z " fill="#FCEC57" transform="translate(194,29)"/>
</svg>
